<svg width="480" height="480" viewBox="0 0 480 480" fill="none" xmlns="http://www.w3.org/2000/svg">
<path d="M221.031 38.9792L68.5305 135.419C59.0605 141.409 53.3505 151.869 53.4505 163.079L55.1105 352.209C55.2105 363.749 61.4505 374.369 71.4805 380.079L222.501 465.999C232.201 471.519 244.061 471.659 253.891 466.359L406.541 384.059C416.901 378.479 423.411 367.709 423.561 355.949L425.941 162.229C426.081 150.839 420.221 140.209 410.521 134.239L255.301 38.7792C244.771 32.2992 231.47 32.3892 221.02 38.9892L221.031 38.9792Z" fill="url(#paint0_linear_93_25825)" stroke="url(#paint1_linear_93_25825)" stroke-width="2" stroke-miterlimit="10"/>
<path d="M222.75 72.1401L184.18 96.9601L94.6104 154.6C86.6504 159.72 81.8604 168.67 81.9404 178.25L83.3404 339.95C83.4304 349.82 88.6704 358.9 97.1004 363.78L224 437.24C232.15 441.96 242.12 442.07 250.38 437.55L378.64 367.18C387.34 362.41 392.82 353.2 392.94 343.14L394.94 177.51C395.06 167.77 390.14 158.68 381.98 153.58L251.56 71.9701C242.71 66.4301 231.53 66.5001 222.75 72.1501V72.1401Z" fill="#24422B" stroke="#71ED54" stroke-width="3" stroke-miterlimit="10"/>
<path d="M238.05 271.83L156.66 395.69C156.66 395.69 205.51 426.54 229.5 438.11C233.72 440.15 242.32 440.19 246.52 438.11C280.69 421.2 313.52 401.07 313.52 401.07L238.04 271.84L238.05 271.83Z" fill="#111E14"/>
<path d="M238.431 252.349L319.821 116.549L249.491 72.3786C242.451 68.4586 232.881 68.4486 225.831 72.3686L162.961 112.849L238.441 252.349H238.431Z" fill="#111E14"/>
<path opacity="0.33" d="M297.13 14L280.91 67.46L270.68 86.64L372.35 150.78L389.81 131.44L438.02 97.33L369.64 99.45L386.08 28.32L325.04 69.66L297.13 14Z" fill="black"/>
<g opacity="0.23">
<path d="M415.65 173.19C415.51 172.02 59.9498 173.48 59.8698 174.65C59.8698 174.65 53.2698 352.72 67.2098 356.99C67.7898 357.17 410.5 361.1 413.3 357.22C433.14 329.64 415.66 173.2 415.66 173.2L415.65 173.19Z" fill="black"/>
</g>
<path d="M222.351 43.979L74.1005 137.729C64.8905 143.549 59.3505 153.729 59.4405 164.619L61.0605 348.479C61.1605 359.699 67.2205 370.019 76.9805 375.569L223.791 459.089C233.221 464.459 244.751 464.589 254.311 459.439L402.711 379.429C412.781 373.999 419.111 363.539 419.251 352.099L421.571 163.779C421.711 152.699 416.011 142.369 406.581 136.569L255.691 43.769C245.451 37.469 232.521 37.549 222.361 43.979H222.351Z" stroke="#1D350A" stroke-width="2" stroke-miterlimit="10"/>
<path d="M197.471 132.75L210.621 160.76" stroke="#2A704D" stroke-miterlimit="10" stroke-linecap="round"/>
<path d="M195.88 132.931C197.967 132.931 199.66 131.239 199.66 129.151C199.66 127.063 197.967 125.371 195.88 125.371C193.792 125.371 192.1 127.063 192.1 129.151C192.1 131.239 193.792 132.931 195.88 132.931Z" stroke="#2A704D" stroke-miterlimit="10" stroke-linecap="round"/>
<path d="M228.131 99.8496V116.43L238.041 116.7V160.94" stroke="#2A704D" stroke-miterlimit="10" stroke-linecap="round"/>
<path d="M228.13 99.8491C230.217 99.8491 231.91 98.1567 231.91 96.0691C231.91 93.9814 230.217 92.2891 228.13 92.2891C226.042 92.2891 224.35 93.9814 224.35 96.0691C224.35 98.1567 226.042 99.8491 228.13 99.8491Z" stroke="#2A704D" stroke-miterlimit="10" stroke-linecap="round"/>
<path d="M219.471 135.43L223.321 166.13" stroke="#2A704D" stroke-miterlimit="10" stroke-linecap="round"/>
<path d="M219.071 135.289C221.159 135.289 222.851 133.596 222.851 131.509C222.851 129.421 221.159 127.729 219.071 127.729C216.983 127.729 215.291 129.421 215.291 131.509C215.291 133.596 216.983 135.289 219.071 135.289Z" stroke="#2A704D" stroke-miterlimit="10" stroke-linecap="round"/>
<path d="M285.621 122.729L269.891 169.759" stroke="#2A704D" stroke-miterlimit="10" stroke-linecap="round"/>
<path d="M287.701 122.849C289.905 122.849 291.691 121.063 291.691 118.859C291.691 116.656 289.905 114.869 287.701 114.869C285.497 114.869 283.711 116.656 283.711 118.859C283.711 121.063 285.497 122.849 287.701 122.849Z" stroke="#2A704D" stroke-miterlimit="10" stroke-linecap="round"/>
<path d="M258.839 135.08L254.709 165.74" stroke="#2A704D" stroke-miterlimit="10" stroke-linecap="round"/>
<path d="M259.46 134.97C261.547 134.97 263.24 133.278 263.24 131.19C263.24 129.103 261.547 127.41 259.46 127.41C257.372 127.41 255.68 129.103 255.68 131.19C255.68 133.278 257.372 134.97 259.46 134.97Z" stroke="#2A704D" stroke-miterlimit="10" stroke-linecap="round"/>
<path d="M279.521 375.549L266.371 347.549" stroke="#2A704D" stroke-miterlimit="10" stroke-linecap="round"/>
<path d="M281.11 382.929C283.198 382.929 284.89 381.237 284.89 379.149C284.89 377.062 283.198 375.369 281.11 375.369C279.022 375.369 277.33 377.062 277.33 379.149C277.33 381.237 279.022 382.929 281.11 382.929Z" stroke="#2A704D" stroke-miterlimit="10" stroke-linecap="round"/>
<path d="M248.861 408.449V391.869L238.961 391.599V347.359" stroke="#2A704D" stroke-miterlimit="10" stroke-linecap="round"/>
<path d="M248.862 416.011C250.95 416.011 252.642 414.319 252.642 412.231C252.642 410.144 250.95 408.451 248.862 408.451C246.774 408.451 245.082 410.144 245.082 412.231C245.082 414.319 246.774 416.011 248.862 416.011Z" stroke="#2A704D" stroke-miterlimit="10" stroke-linecap="round"/>
<path d="M257.522 372.87L253.672 342.18" stroke="#2A704D" stroke-miterlimit="10" stroke-linecap="round"/>
<path d="M257.921 380.57C260.008 380.57 261.701 378.877 261.701 376.79C261.701 374.702 260.008 373.01 257.921 373.01C255.833 373.01 254.141 374.702 254.141 376.79C254.141 378.877 255.833 380.57 257.921 380.57Z" stroke="#2A704D" stroke-miterlimit="10" stroke-linecap="round"/>
<path d="M191.371 385.579L207.101 338.539" stroke="#2A704D" stroke-miterlimit="10" stroke-linecap="round"/>
<path d="M189.291 393.429C191.494 393.429 193.281 391.643 193.281 389.439C193.281 387.236 191.494 385.449 189.291 385.449C187.087 385.449 185.301 387.236 185.301 389.439C185.301 391.643 187.087 393.429 189.291 393.429Z" stroke="#2A704D" stroke-miterlimit="10" stroke-linecap="round"/>
<path d="M218.15 373.228L222.29 342.568" stroke="#2A704D" stroke-miterlimit="10" stroke-linecap="round"/>
<path d="M217.532 380.888C219.62 380.888 221.312 379.196 221.312 377.108C221.312 375.02 219.62 373.328 217.532 373.328C215.444 373.328 213.752 375.02 213.752 377.108C213.752 379.196 215.444 380.888 217.532 380.888Z" stroke="#2A704D" stroke-miterlimit="10" stroke-linecap="round"/>
<path d="M417.88 343.59C413.44 320 458.18 315.46 458.18 315.46L457.1 306.04C457.1 306.04 451.45 307.53 450.02 301.66C448.92 297.14 456.79 294.22 456.82 295.87C456.75 292.09 456.3 289.05 456.3 289.05C456.3 289.05 446.84 290.02 446.99 284.01C447.12 278.68 457.09 277 457.09 277L455.53 269.08C455.53 269.08 450.24 267.81 445.3 265.16C436.86 260.63 436.48 252.13 437.32 244.8C438.83 231.7 454.66 233.76 454.91 231.03C455.14 228.53 455.14 222.35 455.14 222.35C455.14 222.35 448.6 223.1 446.88 217.66C445 211.69 456.3 209.52 456.29 212.03C456.31 207.7 454.66 201.14 454.66 201.14C454.66 201.14 445.66 202.27 444.61 197.49C443.55 192.64 451.65 191.44 454.01 191.22C453.87 188.36 453.73 185.51 453.58 182.65C444.08 181.16 435.04 178.29 427.23 174.3C421.13 171.18 416.22 166.14 415.62 161.2C415.48 160.03 59.9196 161.49 59.8396 162.66C59.4996 167.61 55.0196 175.93 49.0896 179.2C41.4996 183.39 32.6196 186.47 23.1996 188.19C23.1996 191.05 23.2196 193.91 23.2196 196.77C25.5796 196.93 33.7396 197.93 32.9396 202.8C32.1496 207.61 23.0896 206.7 23.0896 206.7C23.0896 206.7 21.7896 213.29 22.0296 217.62C21.8896 215.11 33.2996 217 31.7296 223.01C30.2996 228.49 23.7296 227.9 23.7296 227.9C23.7296 227.9 24.0596 234.07 24.4196 236.57C24.8196 239.3 40.5296 236.84 42.7196 249.9C43.9396 257.2 43.9996 265.7 35.8096 270.44C31.0196 273.21 25.7996 274.61 25.7996 274.61L24.6596 282.56C24.6596 282.56 34.7096 283.99 35.1196 289.32C35.5796 295.33 26.0796 294.59 26.0796 294.59C26.0796 294.59 25.7896 297.64 25.9196 301.42C25.8596 299.77 33.8896 302.5 33.0196 307.04C31.8996 312.94 26.1796 311.59 26.1796 311.59L25.5896 321.03C25.5896 321.03 70.3796 321.3 67.1796 344.99C67.0996 345.59 417.96 344.19 417.85 343.6L417.88 343.59Z" fill="url(#paint2_linear_93_25825)" stroke="url(#paint3_linear_93_25825)" stroke-miterlimit="10"/>
<path d="M112.63 178.85C112.63 178.85 92.8598 179.03 86.7198 179.23C83.8198 196.15 60.4798 198.08 60.4798 198.08C60.4798 198.08 59.7498 273.08 61.7998 306.82C91.2598 310.17 90.2198 327.63 90.2198 327.63H113.03" stroke="#FFE576" stroke-width="2" stroke-miterlimit="10" stroke-linecap="round"/>
<path d="M122.621 327.631H142.131" stroke="#FFE576" stroke-width="2" stroke-miterlimit="10" stroke-linecap="round"/>
<path d="M153.201 327.631H172.711" stroke="#FFE576" stroke-width="2" stroke-miterlimit="10" stroke-linecap="round"/>
<path d="M184.18 327.631H203.69" stroke="#FFE576" stroke-width="2" stroke-miterlimit="10" stroke-linecap="round"/>
<path d="M215.59 327.631H235.1" stroke="#FFE576" stroke-width="2" stroke-miterlimit="10" stroke-linecap="round"/>
<path d="M247.68 327.631H267.19" stroke="#FFE576" stroke-width="2" stroke-miterlimit="10" stroke-linecap="round"/>
<path d="M278.66 327.631H298.17" stroke="#FFE576" stroke-width="2" stroke-miterlimit="10" stroke-linecap="round"/>
<path d="M310.07 327.631H329.58" stroke="#FFE576" stroke-width="2" stroke-miterlimit="10" stroke-linecap="round"/>
<path d="M342.16 327.631H361.67" stroke="#FFE576" stroke-width="2" stroke-miterlimit="10" stroke-linecap="round"/>
<path d="M122.621 178.85H142.131" stroke="#FFE576" stroke-width="2" stroke-miterlimit="10" stroke-linecap="round"/>
<path d="M153.201 178.85H172.711" stroke="#FFE576" stroke-width="2" stroke-miterlimit="10" stroke-linecap="round"/>
<path d="M184.18 178.85H203.69" stroke="#FFE576" stroke-width="2" stroke-miterlimit="10" stroke-linecap="round"/>
<path d="M215.59 178.85H235.1" stroke="#FFE576" stroke-width="2" stroke-miterlimit="10" stroke-linecap="round"/>
<path d="M247.68 178.85H267.19" stroke="#FFE576" stroke-width="2" stroke-miterlimit="10" stroke-linecap="round"/>
<path d="M278.66 178.85H298.17" stroke="#FFE576" stroke-width="2" stroke-miterlimit="10" stroke-linecap="round"/>
<path d="M310.07 178.85H329.58" stroke="#FFE576" stroke-width="2" stroke-miterlimit="10" stroke-linecap="round"/>
<path d="M342.16 178.85H361.67" stroke="#FFE576" stroke-width="2" stroke-miterlimit="10" stroke-linecap="round"/>
<path d="M370.23 178.75C370.23 178.75 390 178.93 396.14 179.13C399.04 196.05 422.38 197.98 422.38 197.98C422.38 197.98 423.11 272.98 421.06 306.72C391.6 310.07 392.64 327.53 392.64 327.53H369.83" stroke="#FFE576" stroke-width="2" stroke-miterlimit="10" stroke-linecap="round"/>
<path d="M112.63 177.27C112.63 177.27 92.8598 177.45 86.7198 177.65C83.8198 194.57 60.4798 196.5 60.4798 196.5C60.4798 196.5 59.7498 271.5 61.7998 305.24C91.2598 308.59 90.2198 326.05 90.2198 326.05H113.03" stroke="#E0A32B" stroke-width="2" stroke-miterlimit="10" stroke-linecap="round"/>
<path d="M122.621 326.049H142.131" stroke="#CA860D" stroke-width="2" stroke-miterlimit="10" stroke-linecap="round"/>
<path d="M153.201 326.049H172.711" stroke="#CA860D" stroke-width="2" stroke-miterlimit="10" stroke-linecap="round"/>
<path d="M184.18 326.049H203.69" stroke="#CA860D" stroke-width="2" stroke-miterlimit="10" stroke-linecap="round"/>
<path d="M215.59 326.049H235.1" stroke="#CA860D" stroke-width="2" stroke-miterlimit="10" stroke-linecap="round"/>
<path d="M247.68 326.049H267.19" stroke="#CA860D" stroke-width="2" stroke-miterlimit="10" stroke-linecap="round"/>
<path d="M278.66 326.049H298.17" stroke="#CA860D" stroke-width="2" stroke-miterlimit="10" stroke-linecap="round"/>
<path d="M310.07 326.049H329.58" stroke="#CA860D" stroke-width="2" stroke-miterlimit="10" stroke-linecap="round"/>
<path d="M342.16 326.049H361.67" stroke="#CA860D" stroke-width="2" stroke-miterlimit="10" stroke-linecap="round"/>
<path d="M122.621 177.27H142.131" stroke="#CA860D" stroke-width="2" stroke-miterlimit="10" stroke-linecap="round"/>
<path d="M153.201 177.27H172.711" stroke="#CA860D" stroke-width="2" stroke-miterlimit="10" stroke-linecap="round"/>
<path d="M184.18 177.27H203.69" stroke="#CA860D" stroke-width="2" stroke-miterlimit="10" stroke-linecap="round"/>
<path d="M215.59 177.27H235.1" stroke="#CA860D" stroke-width="2" stroke-miterlimit="10" stroke-linecap="round"/>
<path d="M247.68 177.27H267.19" stroke="#CA860D" stroke-width="2" stroke-miterlimit="10" stroke-linecap="round"/>
<path d="M278.66 177.27H298.17" stroke="#CA860D" stroke-width="2" stroke-miterlimit="10" stroke-linecap="round"/>
<path d="M310.07 177.27H329.58" stroke="#CA860D" stroke-width="2" stroke-miterlimit="10" stroke-linecap="round"/>
<path d="M342.16 177.27H361.67" stroke="#CA860D" stroke-width="2" stroke-miterlimit="10" stroke-linecap="round"/>
<path d="M370.23 177.17C370.23 177.17 390 177.35 396.14 177.55C399.04 194.47 422.38 196.4 422.38 196.4C422.38 196.4 423.11 271.4 421.06 305.14C391.6 308.49 392.64 325.95 392.64 325.95H369.83" stroke="#CA860D" stroke-width="2" stroke-miterlimit="10" stroke-linecap="round"/>
<path opacity="0.25" d="M185.289 343.839L161.199 345.279L399.629 160.029L413.719 160.589L185.289 343.839Z" fill="#FFF8D9"/>
<path d="M249.131 240.479V231.179L246.771 232.999L245.211 230.869L249.381 227.809H252.121V240.479H249.131Z" fill="#2B3F2C"/>
<path d="M261.41 234.109C261.41 233.719 261.39 233.279 261.34 232.799C261.29 232.319 261.2 231.879 261.07 231.469C260.94 231.059 260.75 230.709 260.51 230.429C260.26 230.149 259.95 230.009 259.55 230.009C259.15 230.009 258.83 230.149 258.59 230.429C258.34 230.709 258.14 231.059 258.01 231.469C257.87 231.879 257.78 232.329 257.73 232.799C257.68 233.279 257.66 233.709 257.66 234.109C257.66 234.509 257.68 234.959 257.73 235.439C257.78 235.919 257.87 236.369 258.01 236.779C258.15 237.189 258.34 237.539 258.59 237.819C258.84 238.099 259.16 238.239 259.55 238.239C259.94 238.239 260.26 238.099 260.51 237.819C260.75 237.539 260.94 237.189 261.07 236.779C261.2 236.369 261.29 235.919 261.34 235.439C261.39 234.959 261.41 234.509 261.41 234.109ZM264.49 234.109C264.49 234.999 264.4 235.859 264.22 236.669C264.04 237.479 263.76 238.189 263.36 238.809C262.96 239.429 262.46 239.909 261.83 240.279C261.2 240.639 260.44 240.829 259.55 240.829C258.66 240.829 257.89 240.649 257.26 240.279C256.63 239.919 256.11 239.429 255.71 238.809C255.31 238.199 255.02 237.479 254.84 236.669C254.66 235.859 254.57 235.009 254.57 234.109C254.57 233.209 254.66 232.359 254.84 231.559C255.02 230.749 255.31 230.049 255.71 229.449C256.11 228.849 256.63 228.369 257.26 228.009C257.89 227.649 258.66 227.479 259.55 227.479C260.44 227.479 261.21 227.659 261.83 228.009C262.46 228.369 262.96 228.849 263.36 229.449C263.75 230.049 264.04 230.759 264.22 231.559C264.4 232.359 264.49 233.209 264.49 234.109Z" fill="#2B3F2C"/>
<path d="M270.511 240.509V231.899L268.331 233.589L266.891 231.619L270.751 228.789H273.281V240.509H270.511Z" fill="#2B3F2C"/>
<path d="M281.861 234.609C281.861 234.249 281.841 233.839 281.801 233.399C281.751 232.959 281.671 232.549 281.551 232.169C281.431 231.789 281.251 231.469 281.031 231.209C280.801 230.949 280.511 230.819 280.141 230.819C279.771 230.819 279.481 230.949 279.251 231.209C279.021 231.469 278.841 231.789 278.711 232.169C278.581 232.549 278.501 232.959 278.451 233.399C278.411 233.839 278.381 234.249 278.381 234.609C278.381 234.969 278.401 235.399 278.451 235.839C278.491 236.289 278.581 236.699 278.711 237.079C278.841 237.459 279.021 237.779 279.251 238.039C279.481 238.299 279.781 238.429 280.141 238.429C280.501 238.429 280.801 238.299 281.031 238.039C281.261 237.779 281.431 237.459 281.551 237.079C281.671 236.699 281.751 236.289 281.801 235.839C281.841 235.389 281.861 234.979 281.861 234.609ZM284.711 234.609C284.711 235.439 284.631 236.229 284.461 236.979C284.301 237.729 284.031 238.389 283.671 238.959C283.301 239.529 282.831 239.979 282.261 240.319C281.681 240.659 280.981 240.819 280.151 240.819C279.321 240.819 278.621 240.649 278.031 240.319C277.451 239.979 276.971 239.529 276.601 238.959C276.231 238.389 275.961 237.729 275.801 236.979C275.641 236.229 275.551 235.439 275.551 234.609C275.551 233.779 275.631 232.999 275.801 232.249C275.971 231.499 276.231 230.849 276.601 230.299C276.971 229.749 277.451 229.299 278.031 228.969C278.611 228.639 279.321 228.479 280.151 228.479C280.981 228.479 281.681 228.639 282.261 228.969C282.841 229.299 283.311 229.749 283.671 230.299C284.031 230.859 284.301 231.509 284.461 232.249C284.631 232.989 284.711 233.779 284.711 234.609Z" fill="#2B3F2C"/>
<path d="M281.221 220.769C279.591 212.809 272.501 207.029 264.361 207.029C263.121 207.029 261.901 207.169 260.721 207.429C258.741 195.829 248.621 186.959 236.461 186.959C224.301 186.959 214.371 195.659 212.261 207.099C203.511 207.899 196.631 215.269 196.631 224.229C196.631 233.719 204.351 241.429 213.841 241.429H239.581C240.891 241.429 241.961 240.369 241.961 239.049C241.961 237.729 240.891 236.669 239.581 236.669H213.841C206.981 236.669 201.391 231.089 201.391 224.219C201.391 217.349 206.971 211.769 213.841 211.769C216.331 211.769 218.741 212.499 220.801 213.889C221.891 214.619 223.371 214.339 224.101 213.249C224.841 212.159 224.551 210.679 223.461 209.949C221.521 208.639 219.351 207.759 217.071 207.329C219.011 198.409 226.971 191.699 236.471 191.699C246.591 191.699 254.961 199.309 256.171 209.099C255.531 209.449 254.911 209.829 254.311 210.259C253.241 211.029 253.001 212.519 253.771 213.579C254.541 214.649 256.031 214.879 257.091 214.119C259.221 212.579 261.731 211.769 264.371 211.769C270.261 211.769 275.391 215.949 276.561 221.709C276.791 222.839 277.781 223.609 278.891 223.609C279.051 223.609 279.211 223.589 279.371 223.559C280.661 223.299 281.491 222.039 281.221 220.749" fill="#2B3F2C"/>
<path opacity="0.25" d="M155.289 344.839L101.199 344.279L339.629 160.029L383.719 160.589L155.289 344.839Z" fill="#FFF8D9"/>
<path d="M122.711 259.639H130.201V292.899H122.711V278.789H110.131V292.899H102.641V259.639H110.131V272.359H122.711V259.639Z" fill="url(#paint4_linear_93_25825)"/>
<path d="M160.199 292.909C159.829 291.749 159.429 290.569 159.009 289.349C158.579 288.129 158.159 286.919 157.739 285.709H144.749C144.329 286.919 143.909 288.139 143.489 289.359C143.069 290.579 142.669 291.759 142.309 292.909H134.529C135.779 289.329 136.969 286.009 138.089 282.969C139.209 279.929 140.309 277.069 141.389 274.379C142.469 271.689 143.519 269.139 144.569 266.719C145.609 264.299 146.699 261.939 147.819 259.639H154.919C156.009 261.939 157.089 264.309 158.149 266.719C159.209 269.139 160.279 271.689 161.359 274.379C162.439 277.069 163.539 279.929 164.659 282.969C165.779 286.009 166.969 289.319 168.229 292.909H160.209H160.199ZM151.199 267.179C151.029 267.659 150.789 268.319 150.469 269.149C150.149 269.979 149.779 270.939 149.369 272.029C148.959 273.119 148.499 274.319 147.989 275.629C147.479 276.939 146.969 278.309 146.439 279.749H155.949C155.439 278.309 154.949 276.929 154.469 275.619C153.989 274.309 153.539 273.099 153.109 272.009C152.679 270.919 152.299 269.959 151.979 269.129C151.659 268.299 151.389 267.649 151.199 267.179Z" fill="url(#paint5_linear_93_25825)"/>
<path d="M186.46 293.579C181.05 293.579 176.93 292.079 174.1 289.069C171.27 286.059 169.85 281.789 169.85 276.249C169.85 273.499 170.28 271.039 171.15 268.879C172.01 266.719 173.2 264.899 174.7 263.409C176.2 261.919 178 260.789 180.08 260.029C182.16 259.259 184.42 258.879 186.85 258.879C188.26 258.879 189.54 258.979 190.69 259.189C191.84 259.399 192.85 259.639 193.71 259.909C194.57 260.179 195.29 260.459 195.87 260.749C196.45 261.039 196.86 261.259 197.12 261.419L194.96 267.469C193.94 266.929 192.74 266.459 191.38 266.079C190.02 265.699 188.48 265.499 186.75 265.499C185.6 265.499 184.47 265.689 183.37 266.079C182.27 266.469 181.29 267.079 180.44 267.929C179.59 268.779 178.91 269.869 178.4 271.219C177.89 272.559 177.63 274.199 177.63 276.119C177.63 277.659 177.8 279.089 178.13 280.419C178.46 281.749 179.01 282.889 179.76 283.849C180.51 284.809 181.5 285.569 182.71 286.129C183.93 286.689 185.4 286.969 187.13 286.969C188.22 286.969 189.19 286.909 190.06 286.779C190.92 286.649 191.69 286.499 192.36 286.319C193.03 286.149 193.62 285.939 194.14 285.719C194.65 285.499 195.12 285.289 195.53 285.099L197.59 291.099C196.53 291.739 195.05 292.319 193.13 292.829C191.21 293.339 188.99 293.599 186.46 293.599V293.579Z" fill="url(#paint6_linear_93_25825)"/>
<path d="M222.001 292.908C221.331 291.828 220.531 290.658 219.621 289.398C218.711 288.138 217.721 286.878 216.661 285.598C215.601 284.318 214.501 283.098 213.341 281.928C212.191 280.758 211.031 279.718 209.881 278.828V292.918H202.391V259.658H209.881V272.158C211.811 270.138 213.761 268.018 215.751 265.818C217.741 263.608 219.571 261.558 221.251 259.658H230.141C227.881 262.358 225.601 264.948 223.311 267.438C221.021 269.928 218.611 272.428 216.081 274.948C218.741 277.168 221.311 279.798 223.781 282.848C226.251 285.898 228.631 289.258 230.911 292.928H222.011L222.001 292.908Z" fill="url(#paint7_linear_93_25825)"/>
<path d="M266.71 268.379C266.71 269.599 266.47 270.759 265.99 271.879C265.51 272.999 264.89 274.079 264.12 275.119C263.35 276.159 262.49 277.159 261.53 278.119C260.57 279.079 259.63 279.989 258.7 280.859C258.22 281.309 257.7 281.809 257.14 282.369C256.58 282.929 256.04 283.499 255.53 284.069C255.02 284.649 254.56 285.179 254.16 285.679C253.76 286.179 253.51 286.589 253.42 286.899H267.72V292.899H245.54C245.48 292.549 245.44 292.099 245.44 291.559V290.409C245.44 288.869 245.69 287.469 246.18 286.189C246.68 284.909 247.32 283.719 248.12 282.609C248.92 281.509 249.82 280.469 250.83 279.509C251.84 278.549 252.84 277.589 253.83 276.629C254.6 275.889 255.32 275.199 255.99 274.539C256.66 273.879 257.25 273.239 257.77 272.619C258.28 271.999 258.68 271.369 258.97 270.749C259.26 270.129 259.4 269.489 259.4 268.849C259.4 267.439 259 266.449 258.2 265.869C257.4 265.289 256.41 265.009 255.22 265.009C254.36 265.009 253.55 265.149 252.8 265.419C252.05 265.689 251.36 266.009 250.74 266.379C250.12 266.749 249.58 267.119 249.13 267.479C248.68 267.849 248.34 268.139 248.12 268.369L244.57 263.379C245.98 262.069 247.62 260.989 249.49 260.139C251.36 259.289 253.37 258.869 255.51 258.869C257.46 258.869 259.14 259.089 260.55 259.539C261.96 259.989 263.12 260.619 264.03 261.439C264.94 262.259 265.61 263.249 266.05 264.419C266.48 265.589 266.7 266.909 266.7 268.379H266.71Z" fill="url(#paint8_linear_93_25825)"/>
<path d="M307.88 263.198C308.26 264.508 308.69 265.988 309.15 267.638C309.61 269.288 310.11 270.988 310.64 272.748C311.17 274.508 311.7 276.268 312.25 278.028C312.8 279.788 313.32 281.418 313.83 282.928C314.25 281.298 314.67 279.518 315.11 277.598C315.54 275.678 315.95 273.698 316.34 271.648C316.72 269.598 317.1 267.558 317.47 265.528C317.84 263.498 318.19 261.538 318.51 259.648H326.29C325.16 265.218 323.87 270.868 322.4 276.588C320.94 282.318 319.35 287.758 317.64 292.908H310.79C309.67 289.838 308.59 286.608 307.53 283.238C306.48 279.858 305.44 276.478 304.42 273.088C303.4 276.478 302.37 279.868 301.34 283.238C300.31 286.608 299.24 289.838 298.12 292.908H291.28C289.58 287.758 287.99 282.318 286.53 276.588C285.07 270.858 283.78 265.208 282.65 259.648H290.76C291.08 261.538 291.44 263.498 291.82 265.528C292.2 267.558 292.61 269.598 293.03 271.648C293.45 273.698 293.87 275.678 294.31 277.598C294.74 279.518 295.19 281.298 295.64 282.928C296.22 281.358 296.78 279.698 297.32 277.938C297.86 276.178 298.39 274.418 298.91 272.658C299.43 270.898 299.9 269.198 300.33 267.568C300.76 265.938 301.16 264.478 301.51 263.198H307.89H307.88Z" fill="url(#paint9_linear_93_25825)"/>
<path d="M331.029 259.639H338.519V292.899H331.029V259.639Z" fill="url(#paint10_linear_93_25825)"/>
<path d="M368.519 292.908C366.379 289.098 364.059 285.338 361.559 281.628C359.059 277.918 356.409 274.408 353.589 271.118V292.908H346.199V259.648H352.299C353.359 260.708 354.519 261.998 355.799 263.538C357.079 265.078 358.379 266.718 359.709 268.458C361.039 270.198 362.359 272.008 363.669 273.878C364.979 275.748 366.209 277.548 367.369 279.278V259.648H374.809V292.908H368.519Z" fill="url(#paint11_linear_93_25825)"/>
<path d="M122.711 256.641H130.201V289.901H122.711V275.791H110.131V289.901H102.641V256.641H110.131V269.361H122.711V256.641Z" fill="url(#paint12_linear_93_25825)"/>
<path d="M160.199 289.911C159.829 288.751 159.429 287.571 159.009 286.351C158.579 285.131 158.159 283.921 157.739 282.711H144.749C144.329 283.921 143.909 285.141 143.489 286.361C143.069 287.581 142.669 288.761 142.309 289.911H134.529C135.779 286.331 136.969 283.011 138.089 279.971C139.209 276.931 140.309 274.071 141.389 271.381C142.469 268.691 143.519 266.141 144.569 263.721C145.609 261.301 146.699 258.941 147.819 256.641H154.919C156.009 258.941 157.089 261.311 158.149 263.721C159.209 266.141 160.279 268.691 161.359 271.381C162.439 274.071 163.539 276.931 164.659 279.971C165.779 283.011 166.969 286.321 168.229 289.911H160.209H160.199ZM151.199 264.181C151.029 264.661 150.789 265.321 150.469 266.151C150.149 266.981 149.779 267.941 149.369 269.031C148.959 270.121 148.499 271.321 147.989 272.631C147.479 273.941 146.969 275.311 146.439 276.751H155.949C155.439 275.311 154.949 273.931 154.469 272.621C153.989 271.311 153.539 270.101 153.109 269.011C152.679 267.921 152.299 266.961 151.979 266.131C151.659 265.301 151.389 264.651 151.199 264.181Z" fill="url(#paint13_linear_93_25825)"/>
<path d="M186.46 290.581C181.05 290.581 176.93 289.081 174.1 286.071C171.27 283.061 169.85 278.791 169.85 273.251C169.85 270.501 170.28 268.041 171.15 265.881C172.01 263.721 173.2 261.901 174.7 260.411C176.2 258.921 178 257.791 180.08 257.031C182.16 256.261 184.42 255.881 186.85 255.881C188.26 255.881 189.54 255.981 190.69 256.191C191.84 256.401 192.85 256.641 193.71 256.911C194.57 257.181 195.29 257.461 195.87 257.751C196.45 258.041 196.86 258.261 197.12 258.421L194.96 264.471C193.94 263.931 192.74 263.461 191.38 263.081C190.02 262.701 188.48 262.501 186.75 262.501C185.6 262.501 184.47 262.691 183.37 263.081C182.27 263.471 181.29 264.081 180.44 264.931C179.59 265.781 178.91 266.871 178.4 268.221C177.89 269.561 177.63 271.201 177.63 273.121C177.63 274.661 177.8 276.091 178.13 277.421C178.46 278.751 179.01 279.891 179.76 280.851C180.51 281.811 181.5 282.571 182.71 283.131C183.93 283.691 185.4 283.971 187.13 283.971C188.22 283.971 189.19 283.911 190.06 283.781C190.92 283.651 191.69 283.501 192.36 283.321C193.03 283.151 193.62 282.941 194.14 282.721C194.65 282.501 195.12 282.291 195.53 282.101L197.59 288.101C196.53 288.741 195.05 289.321 193.13 289.831C191.21 290.341 188.99 290.601 186.46 290.601V290.581Z" fill="url(#paint14_linear_93_25825)"/>
<path d="M222.001 289.91C221.331 288.83 220.531 287.66 219.621 286.4C218.711 285.14 217.721 283.88 216.661 282.6C215.601 281.32 214.501 280.1 213.341 278.93C212.191 277.76 211.031 276.72 209.881 275.83V289.92H202.391V256.66H209.881V269.16C211.811 267.14 213.761 265.02 215.751 262.82C217.741 260.61 219.571 258.56 221.251 256.66H230.141C227.881 259.36 225.601 261.95 223.311 264.44C221.021 266.93 218.611 269.43 216.081 271.95C218.741 274.17 221.311 276.8 223.781 279.85C226.251 282.9 228.631 286.26 230.911 289.93H222.011L222.001 289.91Z" fill="url(#paint15_linear_93_25825)"/>
<path d="M266.71 265.379C266.71 266.599 266.47 267.759 265.99 268.879C265.51 269.999 264.89 271.079 264.12 272.119C263.35 273.159 262.49 274.159 261.53 275.119C260.57 276.079 259.63 276.989 258.7 277.859C258.22 278.309 257.7 278.809 257.14 279.369C256.58 279.929 256.04 280.499 255.53 281.069C255.02 281.649 254.56 282.179 254.16 282.679C253.76 283.179 253.51 283.589 253.42 283.899H267.72V289.899H245.54C245.48 289.549 245.44 289.099 245.44 288.559V287.409C245.44 285.869 245.69 284.469 246.18 283.189C246.68 281.909 247.32 280.719 248.12 279.609C248.92 278.509 249.82 277.469 250.83 276.509C251.84 275.549 252.84 274.589 253.83 273.629C254.6 272.889 255.32 272.199 255.99 271.539C256.66 270.879 257.25 270.239 257.77 269.619C258.28 268.999 258.68 268.369 258.97 267.749C259.26 267.129 259.4 266.489 259.4 265.849C259.4 264.439 259 263.449 258.2 262.869C257.4 262.289 256.41 262.009 255.22 262.009C254.36 262.009 253.55 262.149 252.8 262.419C252.05 262.689 251.36 263.009 250.74 263.379C250.12 263.749 249.58 264.119 249.13 264.479C248.68 264.849 248.34 265.139 248.12 265.369L244.57 260.379C245.98 259.069 247.62 257.989 249.49 257.139C251.36 256.289 253.37 255.869 255.51 255.869C257.46 255.869 259.14 256.089 260.55 256.539C261.96 256.989 263.12 257.619 264.03 258.439C264.94 259.259 265.61 260.249 266.05 261.419C266.48 262.589 266.7 263.909 266.7 265.379H266.71Z" fill="url(#paint16_linear_93_25825)"/>
<path d="M307.88 260.2C308.26 261.51 308.69 262.99 309.15 264.64C309.61 266.29 310.11 267.99 310.64 269.75C311.17 271.51 311.7 273.27 312.25 275.03C312.8 276.79 313.32 278.42 313.83 279.93C314.25 278.3 314.67 276.52 315.11 274.6C315.54 272.68 315.95 270.7 316.34 268.65C316.72 266.6 317.1 264.56 317.47 262.53C317.84 260.5 318.19 258.54 318.51 256.65H326.29C325.16 262.22 323.87 267.87 322.4 273.59C320.94 279.32 319.35 284.76 317.64 289.91H310.79C309.67 286.84 308.59 283.61 307.53 280.24C306.48 276.86 305.44 273.48 304.42 270.09C303.4 273.48 302.37 276.87 301.34 280.24C300.31 283.61 299.24 286.84 298.12 289.91H291.28C289.58 284.76 287.99 279.32 286.53 273.59C285.07 267.86 283.78 262.21 282.65 256.65H290.76C291.08 258.54 291.44 260.5 291.82 262.53C292.2 264.56 292.61 266.6 293.03 268.65C293.45 270.7 293.87 272.68 294.31 274.6C294.74 276.52 295.19 278.3 295.64 279.93C296.22 278.36 296.78 276.7 297.32 274.94C297.86 273.18 298.39 271.42 298.91 269.66C299.43 267.9 299.9 266.2 300.33 264.57C300.76 262.94 301.16 261.48 301.51 260.2H307.89H307.88Z" fill="url(#paint17_linear_93_25825)"/>
<path d="M331.029 256.641H338.519V289.901H331.029V256.641Z" fill="url(#paint18_linear_93_25825)"/>
<path d="M368.519 289.91C366.379 286.1 364.059 282.34 361.559 278.63C359.059 274.92 356.409 271.41 353.589 268.12V289.91H346.199V256.65H352.299C353.359 257.71 354.519 259 355.799 260.54C357.079 262.08 358.379 263.72 359.709 265.46C361.039 267.2 362.359 269.01 363.669 270.88C364.979 272.75 366.209 274.55 367.369 276.28V256.65H374.809V289.91H368.519Z" fill="url(#paint19_linear_93_25825)"/>
<path d="M249.131 238.479V229.179L246.771 230.999L245.211 228.869L249.381 225.809H252.121V238.479H249.131Z" fill="url(#paint20_linear_93_25825)"/>
<path d="M261.41 232.109C261.41 231.719 261.39 231.279 261.34 230.799C261.29 230.319 261.2 229.879 261.07 229.469C260.94 229.059 260.75 228.709 260.51 228.429C260.26 228.149 259.95 228.009 259.55 228.009C259.15 228.009 258.83 228.149 258.59 228.429C258.34 228.709 258.14 229.059 258.01 229.469C257.87 229.879 257.78 230.329 257.73 230.799C257.68 231.279 257.66 231.709 257.66 232.109C257.66 232.509 257.68 232.959 257.73 233.439C257.78 233.919 257.87 234.369 258.01 234.779C258.15 235.189 258.34 235.539 258.59 235.819C258.84 236.099 259.16 236.239 259.55 236.239C259.94 236.239 260.26 236.099 260.51 235.819C260.75 235.539 260.94 235.189 261.07 234.779C261.2 234.369 261.29 233.919 261.34 233.439C261.39 232.959 261.41 232.509 261.41 232.109ZM264.49 232.109C264.49 232.999 264.4 233.859 264.22 234.669C264.04 235.479 263.76 236.189 263.36 236.809C262.96 237.429 262.46 237.909 261.83 238.279C261.2 238.639 260.44 238.829 259.55 238.829C258.66 238.829 257.89 238.649 257.26 238.279C256.63 237.919 256.11 237.429 255.71 236.809C255.31 236.199 255.02 235.479 254.84 234.669C254.66 233.859 254.57 233.009 254.57 232.109C254.57 231.209 254.66 230.359 254.84 229.559C255.02 228.749 255.31 228.049 255.71 227.449C256.11 226.849 256.63 226.369 257.26 226.009C257.89 225.649 258.66 225.479 259.55 225.479C260.44 225.479 261.21 225.659 261.83 226.009C262.46 226.369 262.96 226.849 263.36 227.449C263.75 228.049 264.04 228.759 264.22 229.559C264.4 230.359 264.49 231.209 264.49 232.109Z" fill="url(#paint21_linear_93_25825)"/>
<path d="M270.511 238.509V229.899L268.331 231.589L266.891 229.619L270.751 226.789H273.281V238.509H270.511Z" fill="url(#paint22_linear_93_25825)"/>
<path d="M281.861 232.609C281.861 232.249 281.841 231.839 281.801 231.399C281.751 230.959 281.671 230.549 281.551 230.169C281.431 229.789 281.251 229.469 281.031 229.209C280.801 228.949 280.511 228.819 280.141 228.819C279.771 228.819 279.481 228.949 279.251 229.209C279.021 229.469 278.841 229.789 278.711 230.169C278.581 230.549 278.501 230.959 278.451 231.399C278.411 231.839 278.381 232.249 278.381 232.609C278.381 232.969 278.401 233.399 278.451 233.839C278.491 234.289 278.581 234.699 278.711 235.079C278.841 235.459 279.021 235.779 279.251 236.039C279.481 236.299 279.781 236.429 280.141 236.429C280.501 236.429 280.801 236.299 281.031 236.039C281.261 235.779 281.431 235.459 281.551 235.079C281.671 234.699 281.751 234.289 281.801 233.839C281.841 233.389 281.861 232.979 281.861 232.609ZM284.711 232.609C284.711 233.439 284.631 234.229 284.461 234.979C284.301 235.729 284.031 236.389 283.671 236.959C283.301 237.529 282.831 237.979 282.261 238.319C281.681 238.659 280.981 238.819 280.151 238.819C279.321 238.819 278.621 238.649 278.031 238.319C277.451 237.979 276.971 237.529 276.601 236.959C276.231 236.389 275.961 235.729 275.801 234.979C275.641 234.229 275.551 233.439 275.551 232.609C275.551 231.779 275.631 230.999 275.801 230.249C275.971 229.499 276.231 228.849 276.601 228.299C276.971 227.749 277.451 227.299 278.031 226.969C278.611 226.639 279.321 226.479 280.151 226.479C280.981 226.479 281.681 226.639 282.261 226.969C282.841 227.299 283.311 227.749 283.671 228.299C284.031 228.859 284.301 229.509 284.461 230.249C284.631 230.989 284.711 231.779 284.711 232.609Z" fill="url(#paint23_linear_93_25825)"/>
<path d="M281.221 218.769C279.591 210.809 272.501 205.029 264.361 205.029C263.121 205.029 261.901 205.169 260.721 205.429C258.741 193.829 248.621 184.959 236.461 184.959C224.301 184.959 214.371 193.659 212.261 205.099C203.511 205.899 196.631 213.269 196.631 222.229C196.631 231.719 204.351 239.429 213.841 239.429H239.581C240.891 239.429 241.961 238.369 241.961 237.049C241.961 235.729 240.891 234.669 239.581 234.669H213.841C206.981 234.669 201.391 229.089 201.391 222.219C201.391 215.349 206.971 209.769 213.841 209.769C216.331 209.769 218.741 210.499 220.801 211.889C221.891 212.619 223.371 212.339 224.101 211.249C224.841 210.159 224.551 208.679 223.461 207.949C221.521 206.639 219.351 205.759 217.071 205.329C219.011 196.409 226.971 189.699 236.471 189.699C246.591 189.699 254.961 197.309 256.171 207.099C255.531 207.449 254.911 207.829 254.311 208.259C253.241 209.029 253.001 210.519 253.771 211.579C254.541 212.649 256.031 212.879 257.091 212.119C259.221 210.579 261.731 209.769 264.371 209.769C270.261 209.769 275.391 213.949 276.561 219.709C276.791 220.839 277.781 221.609 278.891 221.609C279.051 221.609 279.211 221.589 279.371 221.559C280.661 221.299 281.491 220.039 281.221 218.749" fill="url(#paint24_linear_93_25825)"/>
<path d="M299.13 10L282.91 63.46L272.68 82.64L374.35 146.78L391.81 127.44L440.02 93.33L371.64 95.45L388.08 24.32L327.04 65.66L299.13 10Z" fill="url(#paint25_linear_93_25825)"/>
<path d="M102.649 165.739C87.8994 168.739 76.3794 180.259 73.3794 195.009C70.3794 180.259 58.8594 168.739 44.1094 165.739C58.8594 162.739 70.3794 151.219 73.3794 136.469C76.3794 151.219 87.8994 162.739 102.649 165.739Z" fill="white"/>
<path d="M433.341 338.54C418.591 341.54 407.071 353.06 404.071 367.81C401.071 353.06 389.551 341.54 374.801 338.54C389.551 335.54 401.071 324.02 404.071 309.27C407.071 324.02 418.591 335.54 433.341 338.54Z" fill="white"/>
<path d="M423.089 338.72C413.419 340.68 405.849 348.25 403.889 357.92C401.929 348.25 394.359 340.68 384.689 338.72C394.359 336.76 401.929 329.19 403.889 319.52C405.849 329.19 413.419 336.76 423.089 338.72Z" fill="#F7D789"/>
<path d="M93.2606 165.67L94.4305 165.91L93.2606 166.15C83.3606 168.16 75.6205 175.9 73.6105 185.8L73.3706 186.97L73.1305 185.8C71.1205 175.9 63.3805 168.16 53.4805 166.15L52.3105 165.91L53.4805 165.67C63.3805 163.66 71.1205 155.92 73.1305 146.02L73.3706 144.85L73.6105 146.02C75.6205 155.92 83.3606 163.66 93.2606 165.67Z" fill="#FFE7B3"/>
<path opacity="0.75" d="M123.951 373.33C118.451 374.45 114.151 378.74 113.041 384.24C111.921 378.74 107.631 374.44 102.131 373.33C107.631 372.21 111.931 367.92 113.041 362.42C114.161 367.92 118.451 372.22 123.951 373.33Z" fill="white"/>
<path opacity="0.75" d="M382.171 141.999L383.041 142.179L382.171 142.359C378.551 143.099 375.721 145.929 374.981 149.549L374.801 150.419L374.621 149.549C373.881 145.929 371.051 143.099 367.431 142.359L366.561 142.179L367.431 141.999C371.051 141.259 373.881 138.429 374.621 134.809L374.801 133.939L374.981 134.809C375.721 138.429 378.551 141.259 382.171 141.999Z" fill="white"/>
<defs>
<linearGradient id="paint0_linear_93_25825" x1="141.291" y1="84.9792" x2="337.111" y2="424.149" gradientUnits="userSpaceOnUse">
<stop stop-color="#C5FF63"/>
<stop offset="0.19" stop-color="#A2EA2A"/>
<stop offset="1" stop-color="#169C1D"/>
</linearGradient>
<linearGradient id="paint1_linear_93_25825" x1="52.4505" y1="252.099" x2="426.951" y2="252.099" gradientUnits="userSpaceOnUse">
<stop stop-color="#F2FFDB"/>
<stop offset="0.55" stop-color="#A2EA2A"/>
<stop offset="1" stop-color="#0D5910"/>
</linearGradient>
<linearGradient id="paint2_linear_93_25825" x1="49.0796" y1="192.91" x2="449.88" y2="318.29" gradientUnits="userSpaceOnUse">
<stop stop-color="#FEDB61"/>
<stop offset="1" stop-color="#E5A72B"/>
</linearGradient>
<linearGradient id="paint3_linear_93_25825" x1="155.77" y1="106.69" x2="324.13" y2="398.29" gradientUnits="userSpaceOnUse">
<stop stop-color="#FFECCF"/>
<stop offset="1" stop-color="#CA860D"/>
</linearGradient>
<linearGradient id="paint4_linear_93_25825" x1="116.421" y1="292.909" x2="116.421" y2="259.639" gradientUnits="userSpaceOnUse">
<stop stop-color="#755823"/>
<stop offset="0.07" stop-color="#6F521E"/>
<stop offset="0.36" stop-color="#5F4012"/>
<stop offset="0.66" stop-color="#55350A"/>
<stop offset="1" stop-color="#523208"/>
</linearGradient>
<linearGradient id="paint5_linear_93_25825" x1="151.369" y1="-47.2315" x2="151.369" y2="-47.2315" gradientUnits="userSpaceOnUse">
<stop stop-color="#755823"/>
<stop offset="0.07" stop-color="#6F521E"/>
<stop offset="0.36" stop-color="#5F4012"/>
<stop offset="0.66" stop-color="#55350A"/>
<stop offset="1" stop-color="#523208"/>
</linearGradient>
<linearGradient id="paint6_linear_93_25825" x1="183.72" y1="293.579" x2="183.72" y2="258.879" gradientUnits="userSpaceOnUse">
<stop stop-color="#755823"/>
<stop offset="0.07" stop-color="#6F521E"/>
<stop offset="0.36" stop-color="#5F4012"/>
<stop offset="0.66" stop-color="#55350A"/>
<stop offset="1" stop-color="#523208"/>
</linearGradient>
<linearGradient id="paint7_linear_93_25825" x1="216.651" y1="-47.2317" x2="216.651" y2="-47.2317" gradientUnits="userSpaceOnUse">
<stop stop-color="#755823"/>
<stop offset="0.07" stop-color="#6F521E"/>
<stop offset="0.36" stop-color="#5F4012"/>
<stop offset="0.66" stop-color="#55350A"/>
<stop offset="1" stop-color="#523208"/>
</linearGradient>
<linearGradient id="paint8_linear_93_25825" x1="256.15" y1="-47.2308" x2="256.15" y2="258.879" gradientUnits="userSpaceOnUse">
<stop stop-color="#755823"/>
<stop offset="0.07" stop-color="#6F521E"/>
<stop offset="0.36" stop-color="#5F4012"/>
<stop offset="0.66" stop-color="#55350A"/>
<stop offset="1" stop-color="#523208"/>
</linearGradient>
<linearGradient id="paint9_linear_93_25825" x1="304.46" y1="-47.2317" x2="304.46" y2="-47.2317" gradientUnits="userSpaceOnUse">
<stop stop-color="#755823"/>
<stop offset="0.07" stop-color="#6F521E"/>
<stop offset="0.36" stop-color="#5F4012"/>
<stop offset="0.66" stop-color="#55350A"/>
<stop offset="1" stop-color="#523208"/>
</linearGradient>
<linearGradient id="paint10_linear_93_25825" x1="334.769" y1="-47.2314" x2="334.769" y2="-47.2314" gradientUnits="userSpaceOnUse">
<stop stop-color="#755823"/>
<stop offset="0.07" stop-color="#6F521E"/>
<stop offset="0.36" stop-color="#5F4012"/>
<stop offset="0.66" stop-color="#55350A"/>
<stop offset="1" stop-color="#523208"/>
</linearGradient>
<linearGradient id="paint11_linear_93_25825" x1="360.499" y1="-47.2317" x2="360.499" y2="-47.2317" gradientUnits="userSpaceOnUse">
<stop stop-color="#755823"/>
<stop offset="0.07" stop-color="#6F521E"/>
<stop offset="0.36" stop-color="#5F4012"/>
<stop offset="0.66" stop-color="#55350A"/>
<stop offset="1" stop-color="#523208"/>
</linearGradient>
<linearGradient id="paint12_linear_93_25825" x1="116.421" y1="289.911" x2="116.421" y2="256.641" gradientUnits="userSpaceOnUse">
<stop stop-color="#FF904B"/>
<stop offset="0.14" stop-color="#DB7D39"/>
<stop offset="0.29" stop-color="#BB6C29"/>
<stop offset="0.45" stop-color="#A25F1C"/>
<stop offset="0.62" stop-color="#905614"/>
<stop offset="0.8" stop-color="#85500E"/>
<stop offset="1" stop-color="#824F0D"/>
</linearGradient>
<linearGradient id="paint13_linear_93_25825" x1="151.369" y1="-47.2295" x2="151.369" y2="-47.2295" gradientUnits="userSpaceOnUse">
<stop stop-color="#FF904B"/>
<stop offset="0.14" stop-color="#DB7D39"/>
<stop offset="0.29" stop-color="#BB6C29"/>
<stop offset="0.45" stop-color="#A25F1C"/>
<stop offset="0.62" stop-color="#905614"/>
<stop offset="0.8" stop-color="#85500E"/>
<stop offset="1" stop-color="#824F0D"/>
</linearGradient>
<linearGradient id="paint14_linear_93_25825" x1="183.72" y1="290.581" x2="183.72" y2="255.881" gradientUnits="userSpaceOnUse">
<stop stop-color="#FF904B"/>
<stop offset="0.14" stop-color="#DB7D39"/>
<stop offset="0.29" stop-color="#BB6C29"/>
<stop offset="0.45" stop-color="#A25F1C"/>
<stop offset="0.62" stop-color="#905614"/>
<stop offset="0.8" stop-color="#85500E"/>
<stop offset="1" stop-color="#824F0D"/>
</linearGradient>
<linearGradient id="paint15_linear_93_25825" x1="216.651" y1="-47.2298" x2="216.651" y2="-47.2298" gradientUnits="userSpaceOnUse">
<stop stop-color="#FF904B"/>
<stop offset="0.14" stop-color="#DB7D39"/>
<stop offset="0.29" stop-color="#BB6C29"/>
<stop offset="0.45" stop-color="#A25F1C"/>
<stop offset="0.62" stop-color="#905614"/>
<stop offset="0.8" stop-color="#85500E"/>
<stop offset="1" stop-color="#824F0D"/>
</linearGradient>
<linearGradient id="paint16_linear_93_25825" x1="256.15" y1="-47.2308" x2="256.15" y2="255.879" gradientUnits="userSpaceOnUse">
<stop stop-color="#FF904B"/>
<stop offset="0.14" stop-color="#DB7D39"/>
<stop offset="0.29" stop-color="#BB6C29"/>
<stop offset="0.45" stop-color="#A25F1C"/>
<stop offset="0.62" stop-color="#905614"/>
<stop offset="0.8" stop-color="#85500E"/>
<stop offset="1" stop-color="#824F0D"/>
</linearGradient>
<linearGradient id="paint17_linear_93_25825" x1="304.46" y1="-47.2297" x2="304.46" y2="-47.2297" gradientUnits="userSpaceOnUse">
<stop stop-color="#FF904B"/>
<stop offset="0.14" stop-color="#DB7D39"/>
<stop offset="0.29" stop-color="#BB6C29"/>
<stop offset="0.45" stop-color="#A25F1C"/>
<stop offset="0.62" stop-color="#905614"/>
<stop offset="0.8" stop-color="#85500E"/>
<stop offset="1" stop-color="#824F0D"/>
</linearGradient>
<linearGradient id="paint18_linear_93_25825" x1="334.769" y1="-47.2295" x2="334.769" y2="-47.2295" gradientUnits="userSpaceOnUse">
<stop stop-color="#FF904B"/>
<stop offset="0.14" stop-color="#DB7D39"/>
<stop offset="0.29" stop-color="#BB6C29"/>
<stop offset="0.45" stop-color="#A25F1C"/>
<stop offset="0.62" stop-color="#905614"/>
<stop offset="0.8" stop-color="#85500E"/>
<stop offset="1" stop-color="#824F0D"/>
</linearGradient>
<linearGradient id="paint19_linear_93_25825" x1="360.499" y1="-47.2297" x2="360.499" y2="-47.2297" gradientUnits="userSpaceOnUse">
<stop stop-color="#FF904B"/>
<stop offset="0.14" stop-color="#DB7D39"/>
<stop offset="0.29" stop-color="#BB6C29"/>
<stop offset="0.45" stop-color="#A25F1C"/>
<stop offset="0.62" stop-color="#905614"/>
<stop offset="0.8" stop-color="#85500E"/>
<stop offset="1" stop-color="#824F0D"/>
</linearGradient>
<linearGradient id="paint20_linear_93_25825" x1="245.221" y1="232.149" x2="252.121" y2="232.149" gradientUnits="userSpaceOnUse">
<stop stop-color="#9C6B10"/>
<stop offset="0.26" stop-color="#8F5D0E"/>
<stop offset="0.61" stop-color="#85520D"/>
<stop offset="1" stop-color="#824F0D"/>
</linearGradient>
<linearGradient id="paint21_linear_93_25825" x1="254.57" y1="232.149" x2="264.49" y2="232.149" gradientUnits="userSpaceOnUse">
<stop stop-color="#9C6B10"/>
<stop offset="0.26" stop-color="#8F5D0E"/>
<stop offset="0.61" stop-color="#85520D"/>
<stop offset="1" stop-color="#824F0D"/>
</linearGradient>
<linearGradient id="paint22_linear_93_25825" x1="266.881" y1="232.649" x2="273.271" y2="232.649" gradientUnits="userSpaceOnUse">
<stop stop-color="#9C6B10"/>
<stop offset="0.26" stop-color="#8F5D0E"/>
<stop offset="0.61" stop-color="#85520D"/>
<stop offset="1" stop-color="#824F0D"/>
</linearGradient>
<linearGradient id="paint23_linear_93_25825" x1="275.541" y1="232.649" x2="284.711" y2="232.649" gradientUnits="userSpaceOnUse">
<stop stop-color="#9C6B10"/>
<stop offset="0.26" stop-color="#8F5D0E"/>
<stop offset="0.61" stop-color="#85520D"/>
<stop offset="1" stop-color="#824F0D"/>
</linearGradient>
<linearGradient id="paint24_linear_93_25825" x1="196.631" y1="212.209" x2="281.261" y2="212.209" gradientUnits="userSpaceOnUse">
<stop stop-color="#9C6B10"/>
<stop offset="0.26" stop-color="#8F5D0E"/>
<stop offset="0.61" stop-color="#85520D"/>
<stop offset="1" stop-color="#824F0D"/>
</linearGradient>
<linearGradient id="paint25_linear_93_25825" x1="286.94" y1="31.12" x2="428.69" y2="112.95" gradientUnits="userSpaceOnUse">
<stop stop-color="#9A6C05"/>
<stop offset="0.04" stop-color="#A4760D"/>
<stop offset="0.11" stop-color="#C29125"/>
<stop offset="0.19" stop-color="#EFBB49"/>
<stop offset="0.25" stop-color="#EFBC4B"/>
<stop offset="0.28" stop-color="#F0C053"/>
<stop offset="0.31" stop-color="#F2C661"/>
<stop offset="0.33" stop-color="#F4D074"/>
<stop offset="0.35" stop-color="#F8DC8D"/>
<stop offset="0.37" stop-color="#FCEBAC"/>
<stop offset="0.38" stop-color="#FFF5BF"/>
<stop offset="0.51" stop-color="#EEBB4A"/>
<stop offset="0.55" stop-color="#F3CF69"/>
<stop offset="0.59" stop-color="#F7DF84"/>
<stop offset="0.61" stop-color="#F8E58D"/>
<stop offset="0.63" stop-color="#F4D573"/>
<stop offset="0.66" stop-color="#F1C960"/>
<stop offset="0.68" stop-color="#EFC052"/>
<stop offset="0.72" stop-color="#EEBB4A"/>
<stop offset="0.78" stop-color="#EAB644"/>
<stop offset="0.85" stop-color="#C49327"/>
<stop offset="0.91" stop-color="#AA7A11"/>
<stop offset="0.96" stop-color="#996B04"/>
<stop offset="1" stop-color="#946600"/>
</linearGradient>
</defs>
</svg>
